<svg width="32" height="32" viewBox="0 0 32 32" fill="none" xmlns="http://www.w3.org/2000/svg">
<path d="M24 6H8C5.79086 6 4 7.79086 4 10V24C4 26.2091 5.79086 28 8 28H24C26.2091 28 28 26.2091 28 24V10C28 7.79086 26.2091 6 24 6Z" fill="white"/>
<path fill-rule="evenodd" clip-rule="evenodd" d="M8 7C6.34315 7 5 8.34315 5 10V24C5 25.6569 6.34315 27 8 27H24C25.6569 27 27 25.6569 27 24V10C27 8.34315 25.6569 7 24 7H8ZM3 10C3 7.23858 5.23858 5 8 5H24C26.7614 5 29 7.23858 29 10V24C29 26.7614 26.7614 29 24 29H8C5.23858 29 3 26.7614 3 24V10Z" fill="black"/>
<path d="M26 6H6C4.89543 6 4 6.89543 4 8V10C4 12 4 12 6 12H26C28 12 28 12 28 10V8C28 6.89543 27.1046 6 26 6Z" fill="black"/>
<path d="M10 6C11.1046 6 12 5.10457 12 4C12 2.89543 11.1046 2 10 2C8.89543 2 8 2.89543 8 4C8 5.10457 8.89543 6 10 6Z" fill="black"/>
<path fill-rule="evenodd" clip-rule="evenodd" d="M10 2.5C9.17157 2.5 8.5 3.17157 8.5 4C8.5 4.82843 9.17157 5.5 10 5.5C10.8284 5.5 11.5 4.82843 11.5 4C11.5 3.17157 10.8284 2.5 10 2.5ZM7.5 4C7.5 2.61929 8.61929 1.5 10 1.5C11.3807 1.5 12.5 2.61929 12.5 4C12.5 5.38071 11.3807 6.5 10 6.5C8.61929 6.5 7.5 5.38071 7.5 4Z" fill="white"/>
<path d="M22 6C23.1046 6 24 5.10457 24 4C24 2.89543 23.1046 2 22 2C20.8954 2 20 2.89543 20 4C20 5.10457 20.8954 6 22 6Z" fill="black"/>
<path fill-rule="evenodd" clip-rule="evenodd" d="M22 2.5C21.1716 2.5 20.5 3.17157 20.5 4C20.5 4.82843 21.1716 5.5 22 5.5C22.8284 5.5 23.5 4.82843 23.5 4C23.5 3.17157 22.8284 2.5 22 2.5ZM19.5 4C19.5 2.61929 20.6193 1.5 22 1.5C23.3807 1.5 24.5 2.61929 24.5 4C24.5 5.38071 23.3807 6.5 22 6.5C20.6193 6.5 19.5 5.38071 19.5 4Z" fill="white"/>
<path d="M18.1081 13.6094C18.1983 13.2485 17.7378 13.0147 17.4996 13.3004L11.9051 20.0139C11.6201 20.3559 11.8633 20.875 12.3084 20.875H15.3384C15.4522 20.875 15.5358 20.982 15.5081 21.0924L14.4753 25.224C14.385 25.5848 14.8456 25.8187 15.0837 25.5329L20.6783 18.8194C20.9632 18.4775 20.72 17.9583 20.2749 17.9583H17.245C17.1311 17.9583 17.0476 17.8513 17.0752 17.7409L18.1081 13.6094Z" fill="#3B82F6"/>
</svg>
